<svg xmlns="http://www.w3.org/2000/svg" viewBox="0 0 1451 80">
  <defs>
    <style>
      .cls-1 {
        fill: #8f5656;
      }

      .cls-2, .cls-3 {
        stroke: none;
      }

      .cls-3 {
        fill: #707070;
      }
    </style>
  </defs>
  <g id="fing" transform="translate(-391 -169)">
    <g id="jim">
      <g id="Group_1" data-name="Group 1">
        <g id="Path_2" data-name="Path 2" class="cls-1" transform="translate(391 246.515)">
          <path class="cls-2" d="M 1450.5 1.985413908958435 L 0.5 1.985413908958435 L 0.5 -8.090489387512207 C 2.79093337059021 -8.065658569335938 12.78672218322754 -7.968767642974854 29.21381759643555 -7.968767642974854 C 131.4156341552734 -7.968767642974854 493.887451171875 -11.74567699432373 867.174560546875 -60.342041015625 C 911.235107421875 -66.07804107666016 954.3241577148438 -70.38912963867188 995.2451171875 -73.15549468994141 C 1033.12451171875 -75.71622467041016 1070.047485351563 -77.01458740234375 1104.988525390625 -77.01458740234375 C 1135.592041015625 -77.01458740234375 1165.3837890625 -76.01967620849609 1193.536499023438 -74.0574951171875 C 1219.129638671875 -72.27367401123047 1243.943603515625 -69.65058898925781 1267.289672851563 -66.26131439208984 C 1306.608032226563 -60.55331420898438 1342.542358398438 -52.59422302246094 1374.0947265625 -42.60549545288086 C 1386.489868164063 -38.68149566650391 1398.229858398438 -34.43076705932617 1408.988891601563 -29.97185897827148 C 1417.595947265625 -26.4047679901123 1425.598022460938 -22.69694900512695 1432.772705078125 -18.95149421691895 C 1443.737060546875 -13.2278528213501 1449.412353515625 -9.15228271484375 1450.5 -8.346343994140625 L 1450.5 1.985413908958435 Z"/>
          <path class="cls-3" d="M 1450 1.485413908958435 L 1450 -8.093253135681152 C 1448.535034179688 -9.16071891784668 1442.89697265625 -13.10598564147949 1432.484008789063 -18.53822326660156 C 1425.315795898438 -22.27767753601074 1417.3212890625 -25.97949600219727 1408.72216796875 -29.5411319732666 C 1397.972900390625 -33.99331283569336 1386.243408203125 -38.23731231689453 1373.85986328125 -42.15531158447266 C 1342.3349609375 -52.12949371337891 1306.43212890625 -60.07676696777344 1267.149047851563 -65.77640533447266 C 1243.8232421875 -69.16094970703125 1219.03076171875 -71.78022003173828 1193.4599609375 -73.56149291992188 C 1165.331420898438 -75.52095031738281 1135.565307617188 -76.51458740234375 1104.988525390625 -76.51458740234375 C 1070.05859375 -76.51458740234375 1033.146850585938 -75.21658325195313 995.2787475585938 -72.65658569335938 C 954.3681640625 -69.89095306396484 911.2894287109375 -65.58094787597656 867.2390747070313 -59.84622192382813 C 493.9219970703125 -11.24585914611816 131.423095703125 -7.468767642974854 29.21381759643555 -7.468767642974854 C 13.78763103485107 -7.468767642974854 4.031176567077637 -7.554182529449463 1 -7.585170269012451 L 1 1.485413908958435 L 1450 1.485413908958435 M 1451 2.485414028167725 L 0 2.485414028167725 L 0 -8.596222877502441 C 0 -8.596222877502441 10.25368881225586 -8.468838691711426 29.21389961242676 -8.468838691711426 C 132.4102325439453 -8.468838691711426 493.8069763183594 -12.23937892913818 867.1099853515625 -60.83786010742188 C 958.8377685546875 -72.77947998046875 1037.69287109375 -77.51464080810547 1104.988525390625 -77.51464080810547 C 1361.883544921875 -77.51464080810547 1451 -8.596222877502441 1451 -8.596222877502441 L 1451 2.485414028167725 Z"/>
        </g>
      </g>
    </g>
  </g>
</svg>
